<svg width="25" height="20" viewBox="0 0 25 20" fill="none" xmlns="http://www.w3.org/2000/svg">
<path d="M5.57083 7.74199C5.575 7.25033 5.57083 6.76283 5.57083 6.27116V4.80033C5.57083 4.74616 5.5875 4.71699 5.62917 4.68783C6.10833 4.35449 6.63333 4.18366 7.22083 4.22533C7.74167 4.26283 8.16667 4.51699 8.39167 5.12949C8.52917 5.50033 8.5625 5.88783 8.5625 6.28366C8.5625 6.64616 8.53333 7.00449 8.42083 7.35033C8.18333 8.09199 7.64167 8.37949 6.93333 8.34616C6.44583 8.32533 6.02083 8.13783 5.625 7.85866C5.5875 7.82533 5.56667 7.79199 5.57083 7.74199ZM12.025 8.35033C12.2167 8.42533 12.4125 8.43366 12.6125 8.41283C13.0958 8.36283 13.525 8.17533 13.9167 7.89199C13.9542 7.86699 13.9708 7.83783 13.9708 7.78783C13.9667 7.62533 13.9708 7.45866 13.9708 7.29616C13.9708 7.12949 13.9667 6.96283 13.9708 6.79616C13.9708 6.73783 13.9542 6.71283 13.8958 6.70449C13.6042 6.66699 13.3167 6.61283 13.025 6.58366C12.7333 6.55866 12.4417 6.57116 12.1583 6.66283C11.8792 6.75449 11.6708 6.92116 11.5875 7.20866C11.5208 7.43366 11.5208 7.65866 11.5917 7.88366C11.6583 8.11283 11.8083 8.26699 12.025 8.35033ZM24.375 2.66699V17.3337C24.375 18.4378 23.4792 19.3337 22.375 19.3337H2.375C1.27083 19.3337 0.375 18.4378 0.375 17.3337V2.66699C0.375 1.56283 1.27083 0.666992 2.375 0.666992H22.375C23.4792 0.666992 24.375 1.56283 24.375 2.66699ZM15.7292 3.66283C15.7458 3.73366 15.7667 3.80449 15.7958 3.87533C16.4833 5.56699 17.1667 7.26283 17.8583 8.95449C17.9167 9.10033 17.9292 9.22116 17.8667 9.36699C17.75 9.62533 17.6625 9.89199 17.5417 10.1462C17.4333 10.3753 17.2625 10.542 17.0125 10.6128C16.8375 10.6587 16.6583 10.667 16.475 10.6503C16.3875 10.642 16.3 10.6212 16.2125 10.617C16.0958 10.6087 16.0375 10.6628 16.0333 10.7837C16.0292 10.9003 16.0292 11.017 16.0333 11.1295C16.0375 11.3212 16.1 11.4087 16.2917 11.442C16.4875 11.4753 16.6833 11.5087 16.8833 11.5128C17.4792 11.5253 17.9542 11.2878 18.2625 10.767C18.3833 10.5628 18.4958 10.3462 18.5833 10.1253C19.4083 8.03783 20.2292 5.94616 21.05 3.85449C21.075 3.79199 21.0958 3.72949 21.1042 3.66283C21.1208 3.56283 21.075 3.51283 20.975 3.50866C20.7417 3.50449 20.5125 3.50866 20.2792 3.50866C20.15 3.50866 20.0583 3.56699 20.0125 3.68783C19.9958 3.73366 19.975 3.78366 19.9583 3.82949L18.7458 7.31699C18.6583 7.57116 18.5708 7.82116 18.475 8.09199C18.4583 8.05449 18.45 8.03366 18.4417 8.01283C17.9917 6.76699 17.5417 5.51699 17.0917 4.27116C17.0208 4.07533 16.9458 3.87533 16.8708 3.67949C16.8333 3.57533 16.7583 3.51283 16.6458 3.51283C16.3792 3.50866 16.1125 3.50449 15.8458 3.50866C15.7542 3.50866 15.7083 3.57533 15.7292 3.66283ZM10.475 7.91699C10.5458 8.40449 10.7917 8.78366 11.225 9.02533C11.6375 9.25449 12.0875 9.28366 12.5458 9.21699C13.075 9.13783 13.5417 8.91283 13.9542 8.57116C13.9708 8.55866 13.9875 8.54616 14.0125 8.52949C14.0333 8.66283 14.05 8.78783 14.075 8.91283C14.0958 9.02116 14.1625 9.09199 14.2625 9.09616C14.4542 9.10033 14.6417 9.10033 14.8333 9.09616C14.9292 9.09199 14.9917 9.02949 15 8.93366C15.0042 8.90033 15.0042 8.86699 15.0042 8.83783V5.13783C15.0042 4.98783 14.9958 4.83783 14.975 4.68783C14.9083 4.23783 14.7167 3.86699 14.3125 3.62949C14.0792 3.49199 13.8208 3.42116 13.5542 3.38366C13.4292 3.36699 13.3042 3.35449 13.175 3.33783H12.7583C12.725 3.34199 12.6917 3.35033 12.6542 3.35033C12.3125 3.36699 11.975 3.40866 11.6458 3.49616C11.4333 3.55033 11.2292 3.62949 11.0208 3.70033C10.8958 3.74199 10.8333 3.83366 10.8375 3.97116C10.8417 4.08783 10.8333 4.20449 10.8375 4.31699C10.8417 4.48783 10.9125 4.53366 11.075 4.48783C11.3458 4.41699 11.6208 4.34199 11.8958 4.28783C12.325 4.20866 12.7583 4.17533 13.1917 4.23783C13.4167 4.27116 13.6292 4.33783 13.7792 4.52949C13.9083 4.69616 13.9542 4.89616 13.9625 5.10033C13.975 5.38783 13.9708 5.67949 13.975 5.96699C13.975 5.98366 13.9708 5.99616 13.9667 6.01699C13.95 6.01699 13.9333 6.01699 13.9208 6.01283C13.5542 5.92533 13.1833 5.86283 12.8042 5.84199C12.4083 5.82116 12.0167 5.84616 11.6417 5.97533C11.1917 6.13366 10.8292 6.40449 10.6167 6.84199C10.4458 7.18783 10.425 7.55033 10.475 7.91699ZM4.4875 3.78783V11.092C4.4875 11.1253 4.4875 11.1628 4.49167 11.1962C4.5 11.3003 4.5625 11.367 4.6625 11.3712C4.90833 11.3753 5.15417 11.3753 5.4 11.3712C5.50417 11.3712 5.56667 11.3003 5.57083 11.2003C5.575 11.167 5.575 11.1295 5.575 11.0962V8.56699C5.6125 8.59616 5.63333 8.61699 5.65417 8.63366C6.27917 9.15449 6.99583 9.32533 7.78333 9.17116C8.49583 9.02949 8.9875 8.59199 9.3125 7.95449C9.55417 7.47116 9.65833 6.95033 9.675 6.41283C9.69583 5.81699 9.63333 5.22949 9.39167 4.67533C9.09583 3.99199 8.60417 3.53783 7.8625 3.38783C7.75 3.36283 7.63333 3.35449 7.52083 3.33783H7.22917C7.17917 3.34616 7.12917 3.35033 7.07917 3.35866C6.59167 3.41699 6.15 3.60033 5.75417 3.88783C5.67083 3.94616 5.59167 4.01283 5.50833 4.07533C5.50417 4.05449 5.49583 4.04199 5.49167 4.02533C5.475 3.92949 5.4625 3.83366 5.44583 3.73783C5.42083 3.57533 5.34167 3.50866 5.17917 3.50449H4.775C4.52917 3.50033 4.4875 3.54616 4.4875 3.78783ZM20.9417 13.4587C20.8292 13.4295 20.7292 13.4587 20.625 13.5003C18.7958 14.267 16.8958 14.7587 14.925 14.992C14.3208 15.0628 13.7125 15.1087 13.1042 15.1253C11.9958 15.1545 10.8875 15.092 9.7875 14.9462C9.04583 14.8462 8.30833 14.7087 7.57917 14.5337C6.0375 14.1628 4.55 13.6295 3.13333 12.917C2.76667 12.7337 2.40833 12.5295 2.04583 12.3337C1.8875 12.2462 1.7875 12.2712 1.70417 12.4212V12.492C1.75417 12.5587 1.79583 12.6337 1.85833 12.692C3.35833 14.0337 5.05 15.0462 6.94167 15.7295C7.85417 16.0587 8.79167 16.3003 9.74583 16.4587C10.3292 16.5545 10.9125 16.617 11.5042 16.6462C11.6292 16.6503 11.7542 16.6545 11.8792 16.6628C11.9083 16.6628 11.9375 16.6712 11.9667 16.6753H12.7042C12.7333 16.6712 12.7625 16.6628 12.7917 16.6628C13.4125 16.6462 14.0333 16.5878 14.65 16.4962C15.5417 16.3628 16.4167 16.1587 17.2708 15.8837C18.5042 15.4837 19.675 14.9503 20.7458 14.2128C20.8625 14.1337 20.9833 14.0545 21.0792 13.9545C21.2583 13.7712 21.175 13.5212 20.9417 13.4587ZM23.0417 12.3045C23.0083 12.1295 22.875 12.0628 22.725 12.0128C22.4875 11.9337 22.2417 11.8962 21.9917 11.8753C21.5333 11.8378 21.075 11.8587 20.625 11.942C20.125 12.0337 19.65 12.1962 19.2292 12.4878C19.1792 12.5212 19.1292 12.5628 19.1 12.6128C19.075 12.6503 19.0708 12.7087 19.0792 12.7545C19.0917 12.8087 19.15 12.8212 19.2042 12.817C19.2292 12.817 19.2542 12.817 19.2792 12.8128L20.0917 12.7253C20.4917 12.6878 20.8917 12.6628 21.2917 12.692C21.4625 12.7045 21.6292 12.742 21.7917 12.7837C21.9708 12.8295 22.05 12.967 22.0583 13.1462C22.0708 13.4253 22.0083 13.692 21.9375 13.9587C21.7917 14.4962 21.5917 15.017 21.3833 15.5337C21.3708 15.567 21.3542 15.6045 21.35 15.6378C21.3333 15.742 21.3917 15.8045 21.4917 15.7837C21.55 15.7712 21.6167 15.7378 21.6583 15.6962C21.8125 15.5462 21.9708 15.3962 22.1 15.2295C22.5458 14.6545 22.8083 13.9962 22.9625 13.2878C22.9917 13.1628 23.0125 13.0337 23.0333 12.9087C23.0417 12.7128 23.0417 12.5087 23.0417 12.3045Z" fill="white"/>
</svg>
